<?xml version="1.0" encoding="utf-8"?>
<!-- Generator: Adobe Illustrator 25.0.0, SVG Export Plug-In . SVG Version: 6.00 Build 0)  -->
<svg version="1.1" id="Layer_1" xmlns="http://www.w3.org/2000/svg" xmlns:xlink="http://www.w3.org/1999/xlink" x="0px" y="0px"
	 viewBox="0 0 1080 1080" style="enable-background:new 0 0 1080 1080;" xml:space="preserve">
<style type="text/css">
	.st0{fill:#FFFFFF;}
	.st1{fill:#4832D5;}
	.st2{fill:#CBF181;}
</style>
<g>
	<rect width="1080" height="1080"/>
</g>
<g>
	<g>
		<g>
			<path class="st0" d="M277.64,510.12c0-7.37,3.84-9.7,9.7-9.7h36.46c4.85,0,8.38,1.41,8.38,6.67c0,5.25-3.54,6.67-8.38,6.67H294.2
				v16.97h25.05c4.34,0,7.78,1.21,7.78,6.36c0,5.15-3.43,6.36-7.78,6.36H294.2v22.72c0,4.95-3.23,8.28-8.28,8.28
				c-5.05,0-8.28-3.33-8.28-8.28V510.12z"/>
			<path class="st0" d="M388.02,567.08c0,4.44-2.02,7.37-6.67,7.37c-4.65,0-6.67-2.93-6.67-7.37v-1.92h-0.2
				c-4.14,5.45-9.49,9.29-17.88,9.29c-8.89,0-18.58-4.44-18.58-19.39v-28.68c0-3.94,1.62-7.37,7.37-7.37c5.76,0,7.37,3.43,7.37,7.37
				v25.75c0,5.96,2.93,10.2,9.29,10.2c5.15,0,11.21-4.24,11.21-11.61v-24.34c0-3.94,1.62-7.37,7.37-7.37c5.76,0,7.37,3.43,7.37,7.37
				V567.08z"/>
			<path class="st0" d="M402.56,530.02h-2.53c-4.14,0-5.86-1.62-5.86-4.85c0-3.23,1.72-4.85,5.86-4.85h2.53v-8.99
				c0-4.85,2.93-7.37,7.37-7.37c4.44,0,7.37,2.52,7.37,7.37v8.99h4.44c4.34,0,6.67,1.31,6.67,4.85s-2.32,4.85-6.67,4.85h-4.44v29.49
				c0,2.22,1.21,3.43,3.84,3.43h2.12c3.23,0,5.15,1.82,5.15,4.95c0,4.24-3.64,6.56-10.71,6.56c-10.71,0-15.15-4.44-15.15-13.13
				V530.02z"/>
			<path class="st0" d="M485.07,567.08c0,4.44-2.02,7.37-6.67,7.37c-4.65,0-6.67-2.93-6.67-7.37v-1.92h-0.2
				c-4.14,5.45-9.49,9.29-17.88,9.29c-8.89,0-18.58-4.44-18.58-19.39v-28.68c0-3.94,1.62-7.37,7.37-7.37c5.76,0,7.37,3.43,7.37,7.37
				v25.75c0,5.96,2.93,10.2,9.29,10.2c5.15,0,11.21-4.24,11.21-11.61v-24.34c0-3.94,1.62-7.37,7.37-7.37c5.76,0,7.37,3.43,7.37,7.37
				V567.08z"/>
			<path class="st0" d="M493.24,525.88c0-4.44,2.93-6.87,6.67-6.87c3.74,0,6.67,2.42,6.67,6.87v5.66h0.2
				c1.72-6.16,5.05-12.52,12.22-12.52c4.65,0,8.08,3.03,8.08,7.17c0,5.45-3.64,7.37-7.27,7.37h-2.63c-5.96,0-9.19,4.14-9.19,16.36
				v17.17c0,3.94-1.62,7.37-7.37,7.37c-5.76,0-7.37-3.43-7.37-7.37V525.88z"/>
			<path class="st0" d="M543.83,549.51c0,7.78,5.05,13.43,13.63,13.43c11.11,0,11.11-7.27,17.07-7.27c3.54,0,6.06,3.03,6.06,5.76
				c0,8.89-14.24,13.03-23.13,13.03c-20.6,0-28.38-13.94-28.38-26.76c0-17.17,10.4-28.68,27.87-28.68
				c16.97,0,26.66,12.02,26.66,24.14c0,5.05-1.51,6.36-6.46,6.36H543.83z M569.69,541.03c-0.81-6.77-5.86-11.72-12.42-11.72
				c-7.37,0-11.82,4.54-13.43,11.72H569.69z"/>
		</g>
		<g>
			<path class="st0" d="M625.48,498.71c18.99,0,29.39,11.92,29.39,18.99c0,4.65-2.52,7.47-7.47,7.47c-9.59,0-6.77-13.13-21.92-13.13
				c-10.4,0-18.99,8.99-18.99,24.74c0,13.23,5.25,24.74,19.59,24.74c13.03,0,12.72-13.94,20.7-13.94c4.04,0,8.08,2.32,8.08,6.36
				c0,10.5-12.72,20.91-28.78,20.91c-22.72,0-36.16-13.03-36.16-38.07C589.93,516.28,602.05,498.71,625.48,498.71z"/>
			<path class="st0" d="M670.51,498.71c4.24,0,7.68,3.43,7.68,7.68c0,4.24-3.43,7.68-7.68,7.68s-7.68-3.43-7.68-7.68
				C662.84,502.14,666.27,498.71,670.51,498.71z M663.14,526.38c0-3.94,1.62-7.37,7.37-7.37s7.37,3.43,7.37,7.37v40.7
				c0,3.94-1.62,7.37-7.37,7.37s-7.37-3.43-7.37-7.37V526.38z"/>
			<path class="st0" d="M693.23,530.02h-2.52c-4.14,0-5.86-1.62-5.86-4.85c0-3.23,1.72-4.85,5.86-4.85h2.52v-8.99
				c0-4.85,2.93-7.37,7.37-7.37s7.37,2.52,7.37,7.37v8.99h4.44c4.34,0,6.67,1.31,6.67,4.85s-2.32,4.85-6.67,4.85h-4.44v29.49
				c0,2.22,1.21,3.43,3.84,3.43h2.12c3.23,0,5.15,1.82,5.15,4.95c0,4.24-3.64,6.56-10.7,6.56c-10.71,0-15.15-4.44-15.15-13.13
				V530.02z"/>
			<path class="st0" d="M748.68,559h0.2l8.99-33.43c1.01-3.74,3.03-6.56,7.07-6.56c5.86,0,7.57,4.85,7.57,6.67
				c0,1.21-0.4,2.73-1.11,4.65l-17.07,48.38c-3.54,10.1-7.57,15.35-16.87,15.35c-6.56,0-9.29-3.23-9.29-6.77
				c0-3.94,2.83-5.96,6.77-5.96h1.51c1.92,0,4.04-0.1,5.15-4.64l-15.35-43.73c-1.21-3.54-1.82-5.15-1.82-6.87
				c0-4.04,3.23-7.07,7.17-7.07c3.94,0,6.67,2.22,7.57,5.56L748.68,559z"/>
		</g>
	</g>
	<g>
		<path class="st0" d="M788.78,524.44c0-3.51,1.83-4.61,4.61-4.61h18.5c2.31,0,3.99,0.67,3.99,3.17c0,2.5-1.68,3.17-3.99,3.17
			h-15.23v7.5h13.36c2.07,0,3.7,0.58,3.7,3.03s-1.63,3.03-3.7,3.03h-13.36v8.36h15.62c2.31,0,3.99,0.67,3.99,3.17
			c0,2.5-1.68,3.17-3.99,3.17H793.4c-2.79,0-4.61-1.11-4.61-4.61V524.44z"/>
		<path class="st0" d="M837.31,536.6l-7.54-11.29c-0.48-0.72-0.82-1.49-0.82-2.4c0-2.07,1.68-3.7,3.94-3.7
			c1.87,0,2.79,1.11,3.27,1.92l5.72,9.85l6.1-9.85c0.82-1.3,1.49-1.92,3.22-1.92c1.92,0,3.8,1.06,3.8,3.56
			c0,0.67-0.34,1.59-0.72,2.11l-8.02,11.72l7.83,11.77c0.82,1.25,1.3,1.87,1.3,2.79c0,2.55-1.83,3.89-4.04,3.89
			c-1.3,0-2.4-0.29-3.32-1.83l-6.34-10.62l-6.82,10.91c-0.67,1.1-1.87,1.54-3.08,1.54c-2.31,0-3.8-1.44-3.8-3.36
			c0-0.82,0.14-1.68,1.06-3.03L837.31,536.6z"/>
		<path class="st0" d="M869.17,524.44c0-3.51,1.83-4.61,4.61-4.61h12.06c6.63,0,11.96,3.27,11.96,10.96
			c0,6.29-4.37,10.96-12.01,10.96h-8.75v9.37c0,2.35-1.54,3.94-3.94,3.94c-2.4,0-3.94-1.59-3.94-3.94V524.44z M877.05,535.68h7.35
			c3.17,0,5.53-1.92,5.53-4.9c0-3.46-2.45-4.9-6.34-4.9h-6.54V535.68z"/>
		<path class="st0" d="M925.22,519.01c11.34,0,17.49,7.54,17.49,17.68c0,9.75-5.67,18.55-17.49,18.55
			c-12.4,0-17.49-8.07-17.49-18.55C907.73,526.55,913.88,519.01,925.22,519.01z M925.22,548.9c7.16,0,9.61-5.57,9.61-12.2
			c0-6.63-3.17-11.34-9.61-11.34s-9.61,4.71-9.61,11.34C915.61,543.32,917.82,548.9,925.22,548.9z"/>
	</g>
	<g>
		<path class="st0" d="M205.74,574.44h-25.28c-5.07,0-9.18-4.11-9.18-9.18l0,0c0-5.07,4.11-9.18,9.18-9.18h25.28
			c5.07,0,9.18,4.11,9.18,9.18l0,0C214.92,570.33,210.81,574.44,205.74,574.44z"/>
	</g>
	<path class="st0" d="M193.1,509.45c-14.39,0-27.53,5.48-37.44,14.45l0-5.27v0c0-20.64,16.79-37.44,37.44-37.44v0h37.43
		c5.07,0,9.18-4.11,9.18-9.18c0-5.07-4.11-9.18-9.18-9.18H193.1v0c-30.77,0-55.8,25.03-55.8,55.8l0,46.62h0c0,0,0,0,0,0
		c0,22.84,13.8,42.52,33.49,51.15c6.03,2.64,12.78-1.87,12.78-8.45c0-3.68-2.22-6.95-5.58-8.44c-13.85-6.13-23.31-20.43-22.24-36.75
		c1.21-18.48,16.09-33.49,34.57-34.83c21.89-1.59,40.22,15.77,40.22,37.33c0,0.03,0,0.06,0,0.1c-0.01,4.99,3.91,9.09,8.9,9.09h0.56
		c4.86,0,8.87-3.9,8.91-8.76c0-0.14,0-0.28,0-0.43C248.9,534.48,223.87,509.45,193.1,509.45z"/>
</g>
</svg>
