<?xml version="1.0" encoding="utf-8"?>
<!-- Generator: Adobe Illustrator 25.0.0, SVG Export Plug-In . SVG Version: 6.00 Build 0)  -->
<svg version="1.1" id="Layer_1" xmlns="http://www.w3.org/2000/svg" xmlns:xlink="http://www.w3.org/1999/xlink" x="0px" y="0px"
	 viewBox="0 0 1080 1080" style="enable-background:new 0 0 1080 1080;" xml:space="preserve">
<style type="text/css">
	.st0{fill:#FFFFFF;}
	.st1{fill:#4832D5;}
	.st2{fill:#CBF181;}
</style>
<g>
	<rect class="st0" width="1080" height="1080"/>
</g>
<g>
	<g>
		<g>
			<path d="M166.37,584.29c0-11.13,5.8-14.64,14.64-14.64h55.05c7.32,0,12.66,2.14,12.66,10.07c0,7.93-5.34,10.07-12.66,10.07
				h-44.68v25.62h37.82c6.56,0,11.74,1.83,11.74,9.61c0,7.78-5.19,9.61-11.74,9.61h-37.82v34.31c0,7.47-4.88,12.51-12.5,12.51
				s-12.51-5.03-12.51-12.51V584.29z"/>
			<path d="M333.04,670.31c0,6.71-3.05,11.13-10.06,11.13c-7.02,0-10.07-4.42-10.07-11.13v-2.9h-0.3
				c-6.25,8.24-14.34,14.03-26.99,14.03c-13.42,0-28.06-6.71-28.06-29.28v-43.31c0-5.95,2.44-11.13,11.13-11.13
				c8.69,0,11.13,5.19,11.13,11.13v38.89c0,9,4.42,15.4,14.03,15.4c7.78,0,16.93-6.4,16.93-17.54v-36.75
				c0-5.95,2.44-11.13,11.13-11.13c8.69,0,11.13,5.19,11.13,11.13V670.31z"/>
			<path d="M355,614.34h-3.81c-6.25,0-8.84-2.44-8.84-7.32c0-4.88,2.59-7.32,8.84-7.32H355v-13.57c0-7.32,4.42-11.13,11.13-11.13
				c6.71,0,11.13,3.81,11.13,11.13v13.57h6.71c6.56,0,10.07,1.98,10.07,7.32s-3.51,7.32-10.07,7.32h-6.71v44.53
				c0,3.35,1.83,5.19,5.8,5.19h3.2c4.88,0,7.78,2.74,7.78,7.47c0,6.41-5.49,9.91-16.17,9.91c-16.17,0-22.88-6.71-22.88-19.83V614.34
				z"/>
			<path d="M479.58,670.31c0,6.71-3.05,11.13-10.06,11.13c-7.02,0-10.07-4.42-10.07-11.13v-2.9h-0.3
				c-6.25,8.24-14.34,14.03-26.99,14.03c-13.42,0-28.06-6.71-28.06-29.28v-43.31c0-5.95,2.44-11.13,11.13-11.13
				c8.69,0,11.13,5.19,11.13,11.13v38.89c0,9,4.42,15.4,14.03,15.4c7.78,0,16.93-6.4,16.93-17.54v-36.75
				c0-5.95,2.44-11.13,11.13-11.13c8.69,0,11.13,5.19,11.13,11.13V670.31z"/>
			<path d="M491.92,608.08c0-6.71,4.42-10.37,10.07-10.37c5.64,0,10.06,3.66,10.06,10.37v8.54h0.31c2.59-9.3,7.63-18.91,18.45-18.91
				c7.02,0,12.2,4.58,12.2,10.83c0,8.23-5.49,11.13-10.98,11.13h-3.96c-9,0-13.88,6.25-13.88,24.71v25.93
				c0,5.95-2.44,11.13-11.13,11.13c-8.69,0-11.13-5.19-11.13-11.13V608.08z"/>
			<path d="M568.32,643.77c0,11.74,7.62,20.28,20.59,20.28c16.78,0,16.78-10.98,25.77-10.98c5.34,0,9.15,4.58,9.15,8.69
				c0,13.42-21.5,19.67-34.92,19.67c-31.11,0-42.85-21.05-42.85-40.41c0-25.93,15.71-43.31,42.09-43.31
				c25.62,0,40.26,18.15,40.26,36.45c0,7.63-2.29,9.61-9.76,9.61H568.32z M607.36,630.96c-1.22-10.22-8.85-17.69-18.76-17.69
				c-11.13,0-17.84,6.86-20.28,17.69H607.36z"/>
		</g>
		<g>
			<path d="M691.6,567.06c28.67,0,44.38,17.99,44.38,28.67c0,7.02-3.81,11.28-11.28,11.28c-14.49,0-10.22-19.83-33.09-19.83
				c-15.71,0-28.67,13.57-28.67,37.36c0,19.98,7.93,37.36,29.59,37.36c19.67,0,19.21-21.05,31.26-21.05c6.1,0,12.2,3.51,12.2,9.61
				c0,15.86-19.21,31.57-43.46,31.57c-34.31,0-54.6-19.67-54.6-57.49C637.92,593.6,656.22,567.06,691.6,567.06z"/>
			<path d="M759.6,567.06c6.41,0,11.59,5.18,11.59,11.59s-5.19,11.59-11.59,11.59s-11.59-5.19-11.59-11.59
				S753.2,567.06,759.6,567.06z M748.47,608.85c0-5.95,2.44-11.13,11.13-11.13s11.13,5.19,11.13,11.13v61.46
				c0,5.95-2.44,11.13-11.13,11.13s-11.13-5.19-11.13-11.13V608.85z"/>
			<path d="M793.91,614.34h-3.81c-6.25,0-8.84-2.44-8.84-7.32c0-4.88,2.59-7.32,8.84-7.32h3.81v-13.57
				c0-7.32,4.42-11.13,11.13-11.13c6.71,0,11.13,3.81,11.13,11.13v13.57h6.71c6.56,0,10.06,1.98,10.06,7.32s-3.51,7.32-10.06,7.32
				h-6.71v44.53c0,3.35,1.83,5.19,5.8,5.19h3.2c4.88,0,7.78,2.74,7.78,7.47c0,6.41-5.49,9.91-16.16,9.91
				c-16.17,0-22.88-6.71-22.88-19.83V614.34z"/>
			<path d="M877.64,658.11h0.31l13.57-50.48c1.52-5.64,4.58-9.91,10.67-9.91c8.85,0,11.44,7.32,11.44,10.07
				c0,1.83-0.61,4.12-1.68,7.02l-25.77,73.05c-5.34,15.25-11.44,23.18-25.47,23.18c-9.91,0-14.03-4.88-14.03-10.22
				c0-5.95,4.27-9,10.22-9h2.29c2.9,0,6.1-0.15,7.78-7.01l-23.18-66.03c-1.83-5.34-2.74-7.78-2.74-10.37
				c0-6.1,4.88-10.68,10.83-10.68s10.06,3.36,11.44,8.39L877.64,658.11z"/>
		</g>
	</g>
	<g>
		<path d="M423.79,743.32c0-5.3,2.76-6.97,6.96-6.97h27.93c3.48,0,6.02,1.02,6.02,4.79c0,3.77-2.54,4.79-6.02,4.79h-23v11.32h20.17
			c3.12,0,5.59,0.87,5.59,4.57c0,3.7-2.47,4.57-5.59,4.57h-20.17v12.62h23.58c3.48,0,6.02,1.01,6.02,4.79
			c0,3.77-2.54,4.79-6.02,4.79h-28.51c-4.21,0-6.96-1.67-6.96-6.97V743.32z"/>
		<path d="M497.07,761.68l-11.39-17.05c-0.72-1.09-1.23-2.25-1.23-3.63c0-3.12,2.54-5.59,5.95-5.59c2.83,0,4.21,1.67,4.93,2.9
			l8.63,14.87l9.22-14.87c1.23-1.96,2.25-2.9,4.86-2.9c2.9,0,5.73,1.6,5.73,5.37c0,1.01-0.51,2.39-1.09,3.19l-12.12,17.7
			l11.83,17.78c1.23,1.89,1.96,2.83,1.96,4.21c0,3.85-2.76,5.88-6.09,5.88c-1.96,0-3.63-0.43-5.01-2.76l-9.58-16.03l-10.3,16.47
			c-1.01,1.67-2.83,2.32-4.64,2.32c-3.48,0-5.73-2.18-5.73-5.08c0-1.23,0.22-2.54,1.6-4.57L497.07,761.68z"/>
		<path d="M545.17,743.32c0-5.3,2.76-6.97,6.96-6.97h18.21c10.01,0,18.07,4.93,18.07,16.54c0,9.51-6.6,16.54-18.14,16.54h-13.21
			v14.15c0,3.56-2.32,5.95-5.95,5.95c-3.63,0-5.95-2.39-5.95-5.95V743.32z M557.07,760.3h11.1c4.79,0,8.34-2.9,8.34-7.4
			c0-5.22-3.7-7.4-9.58-7.4h-9.87V760.3z"/>
		<path d="M629.8,735.12c17.12,0,26.41,11.39,26.41,26.7c0,14.73-8.56,28.01-26.41,28.01c-18.72,0-26.41-12.19-26.41-28.01
			C603.39,746.52,612.68,735.12,629.8,735.12z M629.8,780.25c10.81,0,14.51-8.42,14.51-18.43c0-10.01-4.79-17.12-14.51-17.12
			c-9.72,0-14.51,7.11-14.51,17.12C615.29,771.84,618.63,780.25,629.8,780.25z"/>
	</g>
	<g>
		<g>
			<path d="M559.08,458.7h-38.17c-7.66,0-13.87-6.21-13.87-13.87v0c0-7.66,6.21-13.87,13.87-13.87h38.17
				c7.66,0,13.87,6.21,13.87,13.87v0C572.95,452.49,566.74,458.7,559.08,458.7z"/>
		</g>
		<path d="M540,360.57c-21.73,0-41.57,8.27-56.53,21.83l0-7.96v0c0-31.17,25.36-56.53,56.53-56.53v0h56.53
			c7.66,0,13.87-6.21,13.87-13.87c0-7.66-6.21-13.87-13.87-13.87H540v0c-46.46,0-84.26,37.8-84.26,84.27l0,70.4h0c0,0,0,0,0,0
			c0,34.48,20.83,64.2,50.57,77.23c9.1,3.99,19.3-2.83,19.3-12.77c0-5.55-3.35-10.5-8.43-12.75c-20.92-9.26-35.19-30.85-33.58-55.5
			c1.82-27.91,24.3-50.57,52.2-52.6c33.05-2.41,60.74,23.81,60.74,56.38c0,0.05,0,0.1,0,0.14c-0.02,7.54,5.91,13.73,13.44,13.73
			h0.84c7.34,0,13.4-5.88,13.45-13.22c0-0.21,0-0.43,0-0.65C624.27,398.36,586.46,360.57,540,360.57z"/>
	</g>
</g>
</svg>
