<?xml version="1.0" encoding="utf-8"?>
<!-- Generator: Adobe Illustrator 25.0.0, SVG Export Plug-In . SVG Version: 6.00 Build 0)  -->
<svg version="1.1" id="Layer_1" xmlns="http://www.w3.org/2000/svg" xmlns:xlink="http://www.w3.org/1999/xlink" x="0px" y="0px"
	 viewBox="0 0 1080 1080" style="enable-background:new 0 0 1080 1080;" xml:space="preserve">
<style type="text/css">
	.st0{fill:#FFFFFF;}
	.st1{fill:#4832D5;}
	.st2{fill:#CBF181;}
</style>
<g>
	<rect class="st1" width="1080" height="1080"/>
</g>
<g>
	<g>
		<path class="st2" d="M591.6,680.62H488.4c-20.71,0-37.5-16.79-37.5-37.5v0c0-20.71,16.79-37.5,37.5-37.5h103.2
			c20.71,0,37.5,16.79,37.5,37.5v0C629.1,663.83,612.31,680.62,591.6,680.62z"/>
	</g>
	<path class="st0" d="M540,415.27c-58.76,0-112.39,22.36-152.85,59.02l0-21.52v0c0-84.28,68.57-152.85,152.85-152.85v-0.01h152.85
		c20.71,0,37.5-16.79,37.5-37.5s-16.79-37.5-37.5-37.5H540v0.01c-125.64,0-227.85,102.22-227.85,227.85l-0.01,190.35h0
		c0,0,0,0.01,0,0.01c0,93.25,56.34,173.6,136.75,208.83c24.62,10.78,52.18-7.64,52.18-34.52c0-15.02-9.05-28.39-22.79-34.47
		c-56.56-25.04-95.16-83.42-90.81-150.06c4.93-75.47,65.71-136.73,141.14-142.22c89.38-6.5,164.23,64.37,164.23,152.44
		c0,0.13,0,0.26,0,0.39c-0.05,20.38,15.97,37.11,36.34,37.11h2.27c19.85,0,36.23-15.91,36.38-35.76c0-0.58,0.01-1.16,0.01-1.74
		C767.85,517.46,665.63,415.27,540,415.27z"/>
</g>
</svg>
